<svg id="svg" version="1.1" xmlns="http://www.w3.org/2000/svg" xmlns:xlink="http://www.w3.org/1999/xlink" width="400" height="310.27027027027026" viewBox="0, 0, 400,310.27027027027026"><g id="svgg"><path id="path0" d="M78.112 95.718 C 77.924 97.539,78.139 103.192,78.425 103.957 C 78.520 104.213,78.624 104.911,78.655 105.508 C 78.686 106.106,78.813 106.817,78.936 107.090 C 79.060 107.362,79.193 107.921,79.233 108.331 C 79.297 109.001,79.937 110.636,80.709 112.098 C 80.865 112.395,80.993 112.792,80.993 112.982 C 80.993 113.376,81.951 115.514,82.233 115.749 C 82.335 115.834,82.819 116.602,83.308 117.455 C 83.797 118.309,84.280 119.077,84.381 119.162 C 84.483 119.247,84.969 119.876,85.463 120.559 C 86.677 122.239,91.828 127.230,92.348 127.230 C 92.463 127.230,92.783 127.483,93.059 127.791 C 94.044 128.892,102.316 133.126,103.481 133.126 C 103.723 133.126,104.006 133.266,104.112 133.437 C 104.217 133.607,104.644 133.747,105.061 133.747 C 105.478 133.747,105.818 133.887,105.818 134.057 C 105.818 134.228,106.140 134.368,106.532 134.368 C 106.925 134.368,107.385 134.507,107.555 134.677 C 107.726 134.847,109.359 135.078,111.186 135.190 C 113.013 135.302,114.507 135.511,114.507 135.656 C 114.507 136.009,134.163 135.995,134.538 135.642 C 134.701 135.489,136.090 135.284,137.626 135.186 C 139.162 135.087,140.838 134.928,141.350 134.833 C 143.201 134.488,147.301 134.021,149.882 133.861 C 151.332 133.771,152.677 133.565,152.872 133.403 C 153.343 133.012,179.924 133.002,180.403 133.393 C 180.600 133.552,181.458 133.751,182.312 133.834 C 183.165 133.917,184.422 134.152,185.105 134.358 C 185.787 134.563,187.079 134.882,187.975 135.066 C 188.871 135.251,189.604 135.519,189.604 135.661 C 189.604 135.803,189.953 135.919,190.380 135.919 C 190.807 135.919,191.156 136.059,191.156 136.230 C 191.156 136.400,191.400 136.544,191.699 136.550 C 191.998 136.555,192.513 136.765,192.844 137.015 C 193.176 137.266,193.699 137.471,194.008 137.471 C 194.317 137.471,194.569 137.578,194.569 137.708 C 194.569 137.957,196.835 139.022,197.364 139.022 C 197.534 139.022,197.673 139.162,197.673 139.333 C 197.673 139.503,197.882 139.643,198.138 139.643 C 198.394 139.643,198.604 139.767,198.604 139.918 C 198.604 140.069,199.057 140.409,199.612 140.673 C 200.167 140.938,200.929 141.442,201.306 141.795 C 201.683 142.147,202.078 142.436,202.183 142.436 C 202.289 142.436,202.761 142.820,203.232 143.289 C 203.703 143.759,204.477 144.422,204.952 144.763 C 205.973 145.497,207.292 146.839,207.292 147.144 C 207.292 147.263,207.572 147.448,207.913 147.556 C 208.254 147.665,208.538 147.918,208.544 148.120 C 208.550 148.322,209.178 149.177,209.941 150.019 C 210.703 150.862,211.327 151.643,211.327 151.755 C 211.327 151.868,211.668 152.356,212.085 152.842 C 212.502 153.327,212.788 153.812,212.722 153.919 C 212.656 154.027,212.873 154.311,213.205 154.550 C 213.537 154.790,213.809 155.153,213.809 155.357 C 213.809 155.561,213.914 155.775,214.042 155.831 C 214.170 155.888,214.693 156.773,215.204 157.797 C 215.715 158.821,216.214 159.728,216.313 159.814 C 216.516 159.990,216.967 161.022,217.085 161.585 C 217.128 161.791,217.515 162.698,217.945 163.602 C 218.930 165.674,219.705 168.427,219.705 169.851 C 219.705 170.455,219.845 171.035,220.016 171.140 C 220.186 171.246,220.326 172.623,220.326 174.200 C 220.326 175.805,220.471 177.212,220.655 177.396 C 221.148 177.890,220.530 191.666,219.990 192.227 C 219.833 192.389,219.705 193.340,219.705 194.339 C 219.705 195.339,219.600 196.093,219.472 196.014 C 219.344 195.935,219.211 196.451,219.177 197.160 C 219.062 199.512,218.699 201.707,218.424 201.707 C 218.275 201.707,218.154 202.274,218.154 202.966 C 218.154 203.659,218.035 204.153,217.890 204.063 C 217.745 203.974,217.615 204.306,217.601 204.802 C 217.572 205.834,216.696 209.354,216.268 210.159 C 216.110 210.455,215.981 210.970,215.981 211.304 C 215.981 211.638,215.842 211.997,215.671 212.102 C 215.500 212.208,215.361 212.627,215.361 213.033 C 215.361 213.440,215.237 213.849,215.086 213.943 C 214.934 214.036,214.712 214.638,214.592 215.280 C 214.472 215.922,214.272 216.587,214.148 216.757 C 214.023 216.928,213.726 217.696,213.487 218.464 C 213.249 219.232,212.875 220.209,212.657 220.636 C 212.440 221.063,212.261 221.648,212.259 221.937 C 212.258 222.225,212.118 222.548,211.947 222.653 C 211.777 222.759,211.637 223.163,211.637 223.551 C 211.637 223.939,211.540 224.354,211.421 224.472 C 210.810 225.083,211.347 227.775,212.283 228.795 C 213.514 230.136,217.407 229.661,219.361 227.930 C 221.115 226.375,221.257 226.200,221.257 225.579 C 221.257 225.250,221.362 224.981,221.491 224.981 C 221.704 224.981,221.988 224.418,222.663 222.653 C 222.794 222.312,222.870 221.718,222.832 221.334 C 222.795 220.950,222.914 220.636,223.096 220.636 C 223.279 220.636,223.429 220.310,223.429 219.912 C 223.429 219.514,223.525 219.092,223.642 218.975 C 223.983 218.634,224.636 216.558,224.852 215.128 C 224.962 214.403,225.175 213.809,225.326 213.809 C 225.477 213.809,225.601 213.390,225.601 212.878 C 225.601 212.366,225.741 211.947,225.912 211.947 C 226.082 211.947,226.222 211.397,226.222 210.724 C 226.222 210.052,226.353 209.420,226.514 209.321 C 226.675 209.221,226.903 208.163,227.020 206.968 C 227.138 205.774,227.356 204.721,227.504 204.630 C 227.652 204.538,227.773 203.871,227.773 203.147 C 227.773 202.423,227.901 201.698,228.056 201.536 C 228.212 201.374,228.413 200.473,228.503 199.535 C 228.592 198.596,228.758 197.031,228.871 196.057 L 229.077 194.286 226.641 194.195 L 224.205 194.104 224.125 176.952 L 224.044 159.800 224.823 159.504 C 225.558 159.225,225.970 157.952,225.326 157.952 C 225.175 157.952,224.981 157.568,224.896 157.099 C 224.732 156.192,223.999 154.177,223.739 153.918 C 223.654 153.832,223.083 152.785,222.470 151.590 C 220.676 148.092,220.203 147.286,219.628 146.749 C 219.329 146.470,219.085 146.080,219.085 145.882 C 219.085 145.685,218.631 145.023,218.076 144.412 C 215.148 141.187,214.740 140.682,214.740 140.277 C 214.740 140.099,214.601 139.953,214.430 139.953 C 214.260 139.953,213.528 139.395,212.803 138.712 C 212.078 138.029,211.390 137.471,211.273 137.471 C 211.156 137.471,210.876 137.292,210.651 137.073 C 209.662 136.113,207.458 134.716,204.810 133.371 C 204.042 132.981,203.344 132.592,203.258 132.506 C 202.858 132.105,201.092 131.265,200.650 131.265 C 200.378 131.265,200.155 131.125,200.155 130.954 C 200.155 130.784,199.876 130.644,199.535 130.644 C 199.193 130.644,198.914 130.504,198.914 130.334 C 198.914 130.163,198.573 130.023,198.156 130.023 C 197.740 130.023,197.320 129.896,197.224 129.740 C 197.128 129.584,196.492 129.363,195.811 129.247 C 195.130 129.132,194.494 128.911,194.398 128.755 C 194.301 128.599,193.882 128.472,193.465 128.472 C 193.048 128.472,192.708 128.332,192.708 128.161 C 192.708 127.991,192.312 127.851,191.828 127.851 C 191.345 127.851,190.852 127.754,190.733 127.635 C 190.481 127.383,190.079 127.304,187.655 127.032 C 186.669 126.921,185.788 126.710,185.697 126.565 C 185.607 126.419,184.852 126.299,184.019 126.299 C 183.185 126.299,182.417 126.160,182.312 125.989 C 182.206 125.818,181.221 125.679,180.121 125.679 C 179.022 125.679,178.123 125.558,178.123 125.410 C 178.123 124.776,154.753 125.391,154.354 126.036 C 154.265 126.181,153.525 126.299,152.710 126.299 C 151.895 126.299,151.124 126.404,150.996 126.532 C 150.734 126.794,147.449 127.455,144.996 127.739 C 144.100 127.843,143.367 128.050,143.367 128.200 C 143.367 128.349,142.607 128.472,141.679 128.472 C 140.750 128.472,139.914 128.594,139.821 128.745 C 139.729 128.895,138.149 129.114,136.312 129.232 C 134.475 129.351,132.552 129.542,132.040 129.658 C 128.928 130.361,107.942 129.634,106.366 128.768 C 106.069 128.605,105.406 128.472,104.892 128.472 C 104.377 128.472,103.957 128.332,103.957 128.161 C 103.957 127.991,103.546 127.851,103.044 127.851 C 102.542 127.851,102.056 127.729,101.964 127.581 C 101.872 127.432,101.340 127.222,100.782 127.114 C 97.697 126.515,92.947 123.189,90.389 119.835 C 90.085 119.437,89.363 118.530,88.785 117.818 C 86.990 115.613,86.196 114.257,86.444 113.827 C 86.573 113.604,86.565 113.524,86.426 113.650 C 86.140 113.909,84.817 112.268,84.365 111.094 C 83.697 109.361,83.312 108.611,83.089 108.611 C 82.960 108.611,82.855 108.458,82.855 108.270 C 82.855 108.083,82.661 107.489,82.425 106.951 C 81.433 104.696,80.683 102.477,80.493 101.234 C 80.382 100.505,80.170 99.834,80.021 99.742 C 79.873 99.650,79.752 99.033,79.752 98.371 C 79.752 97.708,79.612 97.080,79.441 96.974 C 79.271 96.869,79.131 96.162,79.131 95.404 C 79.131 93.315,78.335 93.560,78.112 95.718 M316.851 153.631 C 314.901 155.058,314.401 155.543,315.749 154.699 C 317.349 153.696,319.113 152.366,318.821 152.380 C 318.667 152.388,317.781 152.951,316.851 153.631 M294.337 157.642 C 294.678 157.788,295.167 157.908,295.423 157.908 C 295.716 157.908,295.659 157.810,295.268 157.642 C 294.926 157.495,294.438 157.375,294.182 157.375 C 293.888 157.375,293.945 157.473,294.337 157.642 M297.218 158.318 C 297.511 158.434,299.496 158.529,301.629 158.529 C 303.763 158.529,305.747 158.434,306.038 158.318 C 306.329 158.202,304.344 158.107,301.627 158.107 C 298.909 158.107,296.925 158.202,297.218 158.318 M231.939 174.193 C 231.851 174.422,231.822 175.714,231.874 177.064 L 231.969 179.519 232.121 176.648 C 232.272 173.792,232.243 173.401,231.939 174.193 " stroke="none" fill="#6c634c" fill-rule="evenodd"></path><path id="path1" d="M70.634 65.418 C 70.549 65.556,70.380 67.446,70.259 69.617 C 70.139 71.789,69.921 73.639,69.776 73.729 C 69.429 73.943,69.431 79.355,69.778 79.569 C 69.924 79.660,70.118 80.553,70.209 81.555 C 70.300 82.556,70.529 83.677,70.719 84.046 C 70.908 84.415,71.178 84.961,71.318 85.260 C 73.617 90.144,78.791 93.709,78.299 90.070 C 78.190 89.259,78.088 88.386,78.072 88.130 C 78.057 87.874,77.953 87.594,77.840 87.509 C 77.727 87.423,77.756 86.724,77.904 85.957 C 78.052 85.190,78.198 83.724,78.229 82.700 C 78.260 81.676,78.347 81.187,78.424 81.614 C 78.500 82.040,78.691 82.522,78.847 82.684 C 79.003 82.846,79.131 83.203,79.131 83.476 C 79.131 84.120,79.839 85.642,80.140 85.645 C 80.268 85.647,80.372 85.933,80.372 86.281 C 80.372 88.643,82.611 90.277,82.796 88.050 C 82.849 87.412,83.024 86.889,83.184 86.889 C 83.559 86.889,83.572 78.288,83.198 78.148 C 83.045 78.092,82.849 77.556,82.763 76.959 C 82.461 74.876,80.225 71.266,77.958 69.201 C 75.323 66.801,74.476 66.101,74.476 66.320 C 74.476 66.437,74.309 66.365,74.104 66.160 C 73.899 65.955,73.480 65.787,73.173 65.787 C 72.866 65.787,72.614 65.648,72.614 65.477 C 72.614 65.108,70.858 65.056,70.634 65.418 M101.784 91.861 C 101.528 91.988,100.970 92.234,100.543 92.407 C 100.116 92.580,99.257 92.946,98.634 93.219 C 98.011 93.492,97.352 93.716,97.170 93.716 C 96.827 93.716,94.955 94.708,93.880 95.460 C 93.543 95.696,93.084 95.888,92.860 95.888 C 92.405 95.888,91.883 96.323,88.574 99.457 C 87.313 100.652,86.278 101.740,86.274 101.875 C 86.271 102.010,85.986 102.424,85.641 102.794 C 85.296 103.165,84.928 104.000,84.824 104.650 C 84.720 105.300,84.514 105.907,84.366 105.999 C 83.981 106.236,84.031 108.922,84.420 108.922 C 84.801 108.922,85.433 108.429,86.368 107.403 C 88.130 105.469,89.520 104.451,89.176 105.346 C 89.077 105.606,88.870 105.818,88.718 105.818 C 88.565 105.818,88.441 106.028,88.441 106.284 C 88.441 106.540,88.334 106.749,88.204 106.749 C 87.950 106.749,86.889 109.019,86.889 109.563 C 86.889 109.742,86.728 109.790,86.531 109.668 C 86.328 109.542,86.256 109.582,86.366 109.759 C 86.472 109.931,86.358 110.336,86.113 110.660 C 85.868 110.984,85.663 111.493,85.658 111.792 C 85.652 112.091,85.488 112.335,85.292 112.335 C 85.097 112.335,85.313 112.684,85.774 113.111 C 86.620 113.895,88.751 114.228,88.751 113.576 C 88.751 113.406,89.240 113.266,89.837 113.266 C 90.434 113.266,90.923 113.126,90.923 112.956 C 90.923 112.785,91.202 112.645,91.544 112.645 C 91.885 112.645,92.164 112.521,92.164 112.369 C 92.164 112.217,92.547 111.996,93.015 111.879 C 93.482 111.761,93.936 111.568,94.023 111.449 C 94.110 111.330,94.810 110.751,95.578 110.161 C 96.346 109.571,97.139 108.867,97.341 108.596 C 97.542 108.324,98.136 107.623,98.661 107.038 C 100.101 105.431,100.233 105.251,100.233 104.901 C 100.233 104.723,100.343 104.577,100.478 104.577 C 100.612 104.577,101.136 103.774,101.641 102.793 C 102.147 101.811,102.665 100.962,102.793 100.905 C 102.921 100.848,103.026 100.620,103.026 100.398 C 103.026 100.175,103.234 99.593,103.489 99.105 C 103.744 98.616,103.954 97.980,103.955 97.691 C 103.956 97.402,104.081 97.089,104.233 96.996 C 104.565 96.790,104.910 95.007,104.987 93.095 L 105.043 91.699 103.646 91.664 C 102.878 91.645,102.040 91.733,101.784 91.861 M55.004 100.043 C 53.371 100.832,54.722 103.326,59.604 108.535 C 60.445 109.432,61.133 110.077,61.133 109.968 C 61.133 109.858,61.428 110.144,61.789 110.603 C 62.149 111.062,62.514 111.368,62.598 111.284 C 62.682 111.200,63.119 111.471,63.568 111.888 C 64.017 112.305,64.497 112.645,64.634 112.645 C 64.770 112.645,65.191 112.934,65.568 113.287 C 65.945 113.640,66.637 114.007,67.106 114.102 C 67.576 114.197,67.960 114.363,67.960 114.470 C 67.960 115.954,78.536 117.009,79.885 115.660 C 80.532 115.013,80.520 114.967,79.441 113.838 C 78.929 113.302,78.510 112.745,78.510 112.599 C 78.510 112.454,78.293 112.335,78.027 112.335 C 77.761 112.335,77.629 112.196,77.735 112.025 C 77.840 111.854,77.790 111.715,77.622 111.715 C 77.455 111.715,76.714 111.112,75.975 110.375 C 75.236 109.638,74.352 108.874,74.011 108.677 C 73.464 108.362,73.455 108.319,73.937 108.310 C 74.450 108.302,75.681 108.858,76.028 109.255 C 76.209 109.462,77.187 109.844,77.471 109.818 C 77.578 109.808,77.751 109.916,77.855 110.059 C 77.960 110.201,78.347 110.486,78.716 110.691 C 80.559 111.717,79.402 108.295,77.225 106.280 C 76.567 105.671,76.028 105.039,76.028 104.875 C 76.028 104.711,75.818 104.577,75.562 104.577 C 75.306 104.577,75.097 104.464,75.097 104.327 C 75.097 104.052,72.934 103.026,72.355 103.026 C 72.156 103.026,71.994 102.886,71.994 102.715 C 71.994 102.545,71.784 102.405,71.528 102.405 C 71.272 102.405,71.063 102.289,71.063 102.146 C 71.063 102.004,70.888 101.872,70.675 101.853 C 69.175 101.717,67.649 101.349,67.649 101.123 C 67.649 100.975,67.258 100.853,66.780 100.853 C 66.303 100.853,65.779 100.728,65.617 100.574 C 65.017 100.007,56.012 99.556,55.004 100.043 M155.025 102.642 C 154.718 102.949,154.835 106.394,155.159 106.594 C 155.330 106.700,155.469 107.267,155.469 107.854 C 155.469 108.441,155.591 108.922,155.739 108.922 C 155.887 108.922,156.090 109.421,156.189 110.031 C 156.401 111.340,157.074 112.956,157.407 112.956 C 157.536 112.956,157.642 113.175,157.642 113.443 C 157.642 113.712,157.851 114.141,158.107 114.397 C 158.363 114.653,158.573 115.131,158.573 115.460 C 158.573 115.790,158.709 116.059,158.875 116.059 C 159.041 116.059,159.376 116.443,159.619 116.912 C 160.341 118.304,163.229 121.066,164.634 121.706 C 165.055 121.898,165.400 122.162,165.400 122.293 C 165.400 122.424,166.169 122.627,167.110 122.745 C 168.051 122.862,168.897 123.082,168.991 123.233 C 169.224 123.610,171.524 123.579,171.761 123.196 C 171.867 123.026,172.224 122.886,172.555 122.886 C 173.652 122.886,173.098 122.106,171.083 120.816 C 169.911 120.065,169.323 119.480,169.531 119.271 C 169.626 119.177,170.026 119.403,170.422 119.773 C 170.817 120.143,171.524 120.524,171.994 120.619 C 172.463 120.714,172.847 120.913,172.847 121.063 C 172.847 121.212,173.057 121.334,173.313 121.334 C 173.569 121.334,173.778 121.474,173.778 121.645 C 173.778 121.815,174.145 121.955,174.593 121.955 L 175.408 121.955 175.269 119.311 C 175.192 117.856,174.965 116.501,174.764 116.300 C 174.563 116.099,174.399 115.614,174.399 115.221 C 174.399 114.829,174.283 114.507,174.141 114.507 C 173.999 114.507,173.685 114.128,173.443 113.663 C 173.200 113.199,172.753 112.566,172.448 112.256 C 172.143 111.946,171.954 111.592,172.027 111.470 C 172.101 111.349,171.967 111.069,171.728 110.849 C 171.490 110.629,171.296 110.520,171.296 110.608 C 171.296 110.696,170.671 110.143,169.907 109.379 C 169.144 108.615,168.306 107.991,168.045 107.991 C 167.785 107.991,167.572 107.851,167.572 107.680 C 167.572 107.510,167.419 107.370,167.232 107.370 C 167.045 107.370,166.498 107.090,166.017 106.747 C 165.535 106.404,164.711 106.038,164.184 105.932 C 163.658 105.827,163.227 105.619,163.227 105.469 C 163.227 105.320,163.016 105.198,162.758 105.198 C 162.244 105.198,161.012 104.575,160.710 104.163 C 160.606 104.020,160.429 103.926,160.317 103.954 C 160.004 104.031,158.185 103.598,157.652 103.319 C 156.466 102.700,155.274 102.393,155.025 102.642 M113.266 105.663 C 113.266 105.919,113.153 106.129,113.014 106.129 C 112.875 106.129,112.728 106.781,112.686 107.577 C 112.645 108.374,112.484 109.265,112.327 109.557 C 111.736 110.662,112.330 120.093,112.991 120.093 C 113.142 120.093,113.266 120.346,113.266 120.655 C 113.266 122.563,118.544 129.403,120.015 129.403 C 120.229 129.403,120.403 129.542,120.403 129.713 C 120.403 130.134,121.246 130.108,121.511 129.678 C 121.628 129.489,121.595 129.244,121.438 129.135 C 120.993 128.828,119.783 126.627,119.783 126.127 C 119.783 125.880,119.643 125.679,119.472 125.679 C 119.302 125.679,119.162 125.341,119.162 124.929 C 119.162 124.516,119.043 124.132,118.898 124.076 C 118.753 124.019,118.554 123.355,118.455 122.600 L 118.276 121.227 119.053 122.596 C 119.481 123.349,119.925 124.037,120.040 124.124 C 120.281 124.307,120.929 125.312,121.244 125.988 C 121.363 126.244,121.746 126.747,122.095 127.106 C 122.445 127.466,123.044 128.129,123.427 128.581 C 123.838 129.066,124.442 129.403,124.901 129.403 L 125.679 129.403 125.679 124.899 C 125.679 122.422,125.559 120.153,125.412 119.856 C 125.266 119.560,124.899 118.551,124.597 117.614 C 124.296 116.678,123.718 115.423,123.312 114.827 C 122.907 114.231,122.576 113.596,122.576 113.418 C 122.576 113.239,122.296 112.891,121.955 112.645 C 121.614 112.399,121.334 112.083,121.334 111.943 C 121.334 111.344,116.338 106.259,115.483 105.988 C 115.117 105.872,114.818 105.646,114.818 105.487 C 114.818 105.328,114.469 105.198,114.042 105.198 C 113.559 105.198,113.266 105.374,113.266 105.663 M218.852 117.774 C 218.468 118.184,218.154 118.672,218.154 118.859 C 218.154 119.046,218.014 119.112,217.843 119.007 C 217.673 118.901,217.533 119.033,217.533 119.299 C 217.533 119.565,217.423 119.783,217.288 119.783 C 217.154 119.783,216.642 120.551,216.150 121.490 C 215.659 122.428,215.153 123.196,215.026 123.196 C 214.899 123.196,214.700 123.754,214.585 124.436 C 214.470 125.118,214.248 125.754,214.092 125.851 C 213.937 125.947,213.809 126.358,213.809 126.765 C 213.809 127.171,213.670 127.590,213.499 127.696 C 213.328 127.801,213.189 128.500,213.189 129.247 C 213.189 129.995,213.072 130.679,212.929 130.768 C 212.489 131.039,213.033 136.407,213.532 136.715 C 213.684 136.810,213.809 137.298,213.809 137.800 C 213.809 138.301,213.931 138.712,214.081 138.712 C 214.230 138.712,214.437 139.134,214.540 139.650 C 214.643 140.165,215.079 140.967,215.509 141.431 C 215.940 141.895,216.292 142.381,216.292 142.510 C 216.292 142.640,216.431 142.746,216.602 142.746 C 216.787 142.746,216.914 141.528,216.917 139.721 C 216.920 138.057,217.044 136.503,217.193 136.267 C 217.775 135.349,218.154 136.320,218.154 138.730 C 218.154 140.166,218.283 141.195,218.464 141.195 C 218.635 141.195,218.774 141.963,218.774 142.901 C 218.774 144.490,218.983 144.916,219.506 144.393 C 219.624 144.275,220.008 144.135,220.358 144.081 C 220.708 144.028,221.203 143.775,221.458 143.520 C 221.713 143.265,222.038 143.057,222.180 143.057 C 222.321 143.057,222.574 142.664,222.741 142.184 C 222.909 141.705,223.236 141.106,223.470 140.854 C 224.216 140.048,224.653 139.084,224.860 137.788 C 224.971 137.094,225.183 136.451,225.332 136.360 C 225.681 136.143,225.685 130.023,225.335 130.023 C 225.189 130.023,224.979 129.042,224.867 127.842 C 224.756 126.642,224.542 125.420,224.393 125.127 C 223.673 123.709,223.104 122.062,223.149 121.524 C 223.161 121.373,223.055 121.163,222.912 121.059 C 222.500 120.757,221.877 119.525,221.877 119.011 C 221.877 118.753,221.738 118.542,221.567 118.542 C 221.396 118.542,221.257 118.392,221.257 118.209 C 221.257 116.993,219.825 116.734,218.852 117.774 M168.425 135.199 C 168.126 135.279,167.882 135.474,167.882 135.632 C 167.882 135.790,167.703 135.919,167.485 135.919 C 167.267 135.919,166.887 136.199,166.641 136.540 C 166.395 136.881,165.969 137.161,165.695 137.161 C 165.422 137.161,164.869 137.510,164.469 137.936 C 164.068 138.363,163.546 138.712,163.310 138.712 C 163.074 138.712,162.955 138.833,163.047 138.981 C 163.138 139.130,162.797 139.569,162.289 139.959 C 161.781 140.348,161.365 140.855,161.365 141.086 C 161.365 141.316,161.255 141.505,161.120 141.505 C 160.985 141.505,160.467 142.203,159.969 143.057 C 159.471 143.910,158.952 144.608,158.818 144.608 C 158.683 144.608,158.596 144.713,158.625 144.841 C 158.740 145.355,158.175 147.401,157.917 147.401 C 157.766 147.401,157.642 147.882,157.642 148.469 C 157.642 149.056,157.502 149.623,157.331 149.728 C 156.935 149.973,156.917 156.400,157.313 156.400 C 157.473 156.400,157.647 156.910,157.700 157.533 C 157.881 159.651,160.390 159.355,162.634 156.949 C 162.910 156.653,163.204 156.480,163.287 156.564 C 163.371 156.648,163.879 156.296,164.417 155.782 C 164.954 155.269,165.475 154.849,165.574 154.849 C 165.673 154.849,165.932 154.674,166.149 154.461 C 166.366 154.247,167.177 153.492,167.952 152.782 C 168.726 152.071,169.759 150.954,170.247 150.299 C 170.735 149.644,171.346 148.898,171.607 148.642 C 171.867 148.386,172.357 147.618,172.696 146.936 C 173.035 146.253,173.385 145.625,173.474 145.539 C 174.961 144.110,174.788 134.709,173.281 135.053 C 172.844 135.152,168.200 139.582,166.844 141.194 C 166.377 141.749,165.900 142.109,165.784 141.993 C 165.668 141.877,165.724 141.684,165.910 141.566 C 166.095 141.447,166.346 141.031,166.468 140.642 C 166.589 140.252,166.992 139.612,167.363 139.219 C 170.251 136.158,170.663 134.601,168.425 135.199 M114.026 136.820 C 113.864 136.974,112.894 137.183,111.870 137.286 C 109.217 137.551,109.232 137.548,109.232 137.833 C 109.232 137.975,108.953 138.092,108.611 138.092 C 108.270 138.092,107.991 138.231,107.991 138.402 C 107.991 138.573,107.711 138.712,107.370 138.712 C 107.029 138.712,106.749 138.836,106.749 138.986 C 106.749 139.137,106.505 139.342,106.206 139.443 C 105.502 139.679,104.654 140.243,103.664 141.133 C 102.257 142.399,99.307 145.379,99.304 145.539 C 99.302 145.625,98.886 146.179,98.380 146.772 C 97.873 147.364,97.374 148.237,97.270 148.711 C 97.165 149.185,96.967 149.573,96.829 149.573 C 96.690 149.573,96.492 150.097,96.389 150.737 C 96.285 151.377,96.143 152.215,96.072 152.599 C 95.944 153.294,95.963 153.297,99.950 153.297 C 102.414 153.297,103.957 153.178,103.957 152.987 C 103.957 152.814,104.784 152.676,105.818 152.676 C 106.843 152.676,107.680 152.555,107.680 152.406 C 107.680 152.258,108.518 152.041,109.542 151.925 C 110.566 151.810,111.404 151.582,111.404 151.420 C 111.404 151.258,111.683 151.125,112.025 151.125 C 112.366 151.125,112.645 151.002,112.645 150.851 C 112.645 150.700,112.890 150.495,113.189 150.394 C 113.927 150.146,114.748 149.582,115.848 148.565 C 116.356 148.095,116.899 147.711,117.056 147.711 C 117.331 147.711,118.452 146.752,119.871 145.303 C 120.249 144.917,121.082 144.092,121.722 143.469 C 122.362 142.846,122.886 142.171,122.886 141.969 C 122.886 141.767,123.172 141.343,123.521 141.026 C 124.987 139.700,124.253 138.872,121.567 138.823 C 120.244 138.799,119.162 138.904,119.162 139.056 C 119.162 139.208,118.638 139.334,117.998 139.335 C 117.358 139.336,116.435 139.545,115.946 139.800 C 115.457 140.055,114.805 140.264,114.498 140.264 C 114.190 140.264,113.892 140.369,113.835 140.497 C 113.778 140.625,113.255 140.995,112.673 141.319 L 111.615 141.910 112.208 141.096 C 112.534 140.649,112.975 140.279,113.189 140.274 C 113.402 140.268,113.576 140.150,113.576 140.011 C 113.576 139.664,115.630 138.712,116.380 138.712 C 116.715 138.712,116.990 138.582,116.990 138.423 C 116.990 138.265,117.293 138.090,117.664 138.036 C 118.842 137.862,118.710 137.161,117.500 137.161 C 116.898 137.161,116.320 137.021,116.214 136.850 C 115.975 136.464,114.424 136.442,114.026 136.820 " stroke="none" fill="#9cac6c" fill-rule="evenodd"></path><path id="path2" d="M256.633 115.745 C 256.077 116.067,255.114 116.380,254.978 116.283 C 254.729 116.106,252.289 118.816,252.289 119.269 C 252.289 119.552,252.149 119.783,251.978 119.783 C 251.808 119.783,251.668 120.062,251.668 120.403 C 251.668 120.745,251.559 121.024,251.426 121.024 C 251.293 121.024,250.913 121.722,250.582 122.576 C 250.251 123.429,249.897 124.127,249.796 124.127 C 249.694 124.127,249.420 124.616,249.185 125.213 C 248.951 125.811,248.657 126.299,248.532 126.299 C 248.406 126.299,248.205 126.753,248.085 127.308 C 247.965 127.863,247.779 128.386,247.672 128.472 C 247.263 128.799,246.703 130.042,246.703 130.621 C 246.703 130.955,246.577 131.306,246.423 131.401 C 245.918 131.713,246.329 133.876,246.997 134.417 C 247.347 134.701,247.634 135.089,247.634 135.279 C 247.634 135.700,250.292 138.402,250.706 138.402 C 250.869 138.402,252.060 138.891,253.353 139.488 C 254.647 140.085,255.764 140.574,255.836 140.574 C 255.908 140.574,257.025 141.063,258.318 141.660 C 259.612 142.258,260.731 142.746,260.805 142.746 C 260.880 142.746,262.144 143.305,263.615 143.988 C 265.086 144.670,266.347 145.229,266.417 145.229 C 266.487 145.229,267.352 145.597,268.338 146.046 C 269.325 146.496,271.008 147.264,272.079 147.753 C 273.150 148.242,274.083 148.642,274.151 148.642 C 274.220 148.642,275.334 149.131,276.627 149.728 C 277.920 150.326,279.038 150.815,279.111 150.815 C 279.183 150.815,280.125 151.217,281.204 151.709 C 283.474 152.745,290.939 156.020,291.854 156.382 C 292.196 156.517,292.824 156.776,293.251 156.958 C 299.522 159.627,310.449 158.116,316.735 153.710 C 317.790 152.971,318.857 152.366,319.107 152.366 C 319.623 152.366,322.720 149.127,323.554 147.715 C 323.857 147.201,324.215 146.780,324.349 146.780 C 324.483 146.780,324.593 146.501,324.593 146.160 C 324.593 145.818,324.732 145.539,324.903 145.539 C 325.074 145.539,325.213 145.120,325.213 144.608 C 325.213 143.884,325.075 143.677,324.593 143.677 C 324.251 143.677,323.972 143.538,323.972 143.367 C 323.972 143.196,323.789 143.057,323.565 143.057 C 323.341 143.057,322.434 142.708,321.549 142.281 C 320.665 141.854,319.837 141.505,319.709 141.505 C 319.582 141.505,318.429 141.004,317.148 140.391 C 315.866 139.778,314.538 139.165,314.197 139.027 C 313.127 138.596,309.877 137.134,309.314 136.830 C 309.017 136.671,308.564 136.540,308.305 136.540 C 308.047 136.540,307.836 136.434,307.836 136.305 C 307.836 136.034,306.515 135.427,305.272 135.127 C 304.802 135.013,304.339 134.795,304.246 134.644 C 304.152 134.492,303.804 134.368,303.473 134.368 C 303.141 134.368,302.870 134.228,302.870 134.057 C 302.870 133.887,302.717 133.747,302.529 133.747 C 302.178 133.747,301.160 133.322,298.234 131.952 C 297.306 131.517,296.363 131.161,296.140 131.161 C 295.916 131.161,295.733 131.045,295.733 130.903 C 295.733 130.760,295.537 130.644,295.297 130.644 C 295.057 130.644,294.324 130.375,293.668 130.046 C 291.405 128.913,290.361 128.472,289.945 128.472 C 289.715 128.472,289.527 128.332,289.527 128.161 C 289.527 127.991,289.247 127.851,288.906 127.851 C 288.565 127.851,288.285 127.727,288.285 127.575 C 288.285 127.424,287.797 127.208,287.199 127.096 C 286.602 126.984,286.113 126.759,286.113 126.596 C 286.113 126.433,285.764 126.299,285.337 126.299 C 284.911 126.299,284.562 126.160,284.562 125.989 C 284.562 125.818,284.339 125.679,284.066 125.679 C 283.794 125.679,283.131 125.449,282.592 125.169 C 280.795 124.233,280.539 124.127,280.066 124.127 C 279.808 124.127,279.597 124.022,279.597 123.893 C 279.597 123.622,278.277 123.014,277.036 122.715 C 276.567 122.601,276.183 122.384,276.183 122.232 C 276.183 122.080,276.000 121.955,275.776 121.955 C 275.552 121.955,274.645 121.606,273.760 121.179 C 272.876 120.753,272.044 120.403,271.913 120.403 C 271.782 120.403,270.838 119.996,269.817 119.498 C 268.795 118.999,267.576 118.496,267.106 118.378 C 266.637 118.260,266.253 118.039,266.253 117.887 C 266.253 117.735,266.048 117.611,265.797 117.611 C 265.546 117.611,264.847 117.333,264.243 116.994 C 263.639 116.655,263.041 116.358,262.915 116.334 C 262.386 116.234,261.720 115.996,261.214 115.726 C 260.543 115.367,257.261 115.381,256.633 115.745 M262.658 151.000 C 262.385 152.458,262.676 155.203,263.201 156.109 C 263.889 157.297,265.083 158.565,265.355 158.397 C 265.495 158.310,266.139 158.582,266.785 159.002 C 267.431 159.421,268.568 159.942,269.311 160.158 C 270.054 160.375,270.732 160.735,270.818 160.959 C 270.999 161.431,272.459 161.517,272.459 161.055 C 272.459 160.884,272.954 160.745,273.558 160.745 C 274.989 160.745,276.665 159.860,278.158 158.316 C 279.607 156.819,279.433 156.561,275.977 155.102 C 274.810 154.609,273.437 154.014,272.925 153.779 C 271.060 152.922,268.545 151.800,267.029 151.149 C 266.175 150.782,265.235 150.348,264.938 150.183 C 263.727 149.510,262.881 149.813,262.658 151.000 M225.601 158.891 C 225.601 159.065,225.251 159.342,224.823 159.504 L 224.044 159.800 224.125 176.952 L 224.205 194.104 226.740 194.259 C 229.455 194.425,229.946 194.188,229.946 192.712 C 229.946 192.368,230.085 192.087,230.256 192.087 C 230.427 192.087,230.566 191.676,230.566 191.174 C 230.566 190.672,230.698 190.180,230.859 190.081 C 231.019 189.982,231.247 188.923,231.365 187.728 C 231.483 186.534,231.700 185.481,231.848 185.390 C 231.997 185.298,232.118 184.400,232.118 183.394 C 232.118 182.388,232.286 181.196,232.492 180.745 C 232.809 180.048,232.786 179.881,232.336 179.629 C 231.547 179.187,231.559 174.260,232.351 173.813 C 232.786 173.567,232.817 173.428,232.506 173.115 C 232.273 172.879,232.118 171.889,232.118 170.631 C 232.118 169.481,231.995 168.463,231.844 168.370 C 231.694 168.277,231.473 167.152,231.353 165.869 C 231.232 164.587,231.006 163.538,230.850 163.538 C 230.694 163.538,230.566 163.127,230.566 162.625 C 230.566 162.123,230.427 161.626,230.256 161.521 C 230.085 161.415,229.946 160.988,229.946 160.571 C 229.946 160.155,229.806 159.814,229.635 159.814 C 229.465 159.814,229.325 159.621,229.325 159.385 C 229.325 159.148,229.011 158.871,228.627 158.768 C 227.505 158.468,225.601 158.545,225.601 158.891 M257.331 171.515 C 256.947 171.589,256.633 171.762,256.633 171.900 C 256.633 172.038,256.249 172.311,255.780 172.505 C 254.718 172.946,254.334 176.943,255.223 178.301 C 255.487 178.703,255.702 179.300,255.702 179.628 C 255.702 181.978,262.079 181.658,263.943 179.213 C 264.851 178.023,265.085 174.399,264.253 174.399 C 264.007 174.399,263.623 174.139,263.400 173.820 C 262.752 172.897,260.909 171.919,259.814 171.917 C 259.259 171.917,258.805 171.777,258.805 171.606 C 258.805 171.290,258.572 171.276,257.331 171.515 " stroke="none" fill="#838383" fill-rule="evenodd"></path><path id="path3" d="M247.353 135.609 C 248.252 137.002,248.255 137.006,248.253 136.669 C 248.252 136.513,247.891 135.966,247.451 135.454 L 246.652 134.523 247.353 135.609 M251.978 139.175 C 251.978 139.420,256.099 141.218,256.417 141.111 C 256.590 141.054,256.047 140.750,255.209 140.436 C 254.371 140.123,253.545 139.768,253.375 139.648 C 252.939 139.341,251.978 139.015,251.978 139.175 M258.185 141.994 C 258.185 142.204,259.797 142.789,259.950 142.636 C 260.021 142.565,259.652 142.359,259.131 142.178 C 258.611 141.996,258.185 141.914,258.185 141.994 M263.150 144.167 C 263.150 144.376,264.762 144.962,264.915 144.808 C 264.986 144.738,264.617 144.531,264.097 144.350 C 263.576 144.168,263.150 144.086,263.150 144.167 M271.528 147.852 C 271.528 148.068,274.399 149.289,274.550 149.138 C 274.623 149.064,274.025 148.714,273.221 148.358 C 271.672 147.672,271.528 147.630,271.528 147.852 M276.664 150.159 C 276.826 150.311,277.308 150.526,277.735 150.637 L 278.510 150.840 277.735 150.373 C 276.870 149.852,276.190 149.716,276.664 150.159 M267.184 150.955 C 267.184 151.171,270.054 152.392,270.206 152.241 C 270.279 152.168,269.681 151.817,268.877 151.461 C 267.327 150.776,267.184 150.733,267.184 150.955 M281.458 152.204 C 281.458 152.430,284.338 153.624,284.498 153.465 C 284.580 153.382,284.279 153.171,283.829 152.995 C 283.379 152.820,282.661 152.540,282.234 152.374 C 281.808 152.207,281.458 152.131,281.458 152.204 M270.988 152.703 C 271.851 153.206,273.701 153.941,273.701 153.781 C 273.701 153.623,270.948 152.360,270.635 152.376 C 270.529 152.381,270.688 152.528,270.988 152.703 M317.188 153.732 C 316.121 154.483,314.802 155.268,314.257 155.475 C 311.286 156.605,310.027 157.144,310.126 157.243 C 310.187 157.304,310.972 157.064,311.870 156.711 C 312.767 156.357,313.542 156.107,313.590 156.156 C 313.801 156.369,308.651 166.236,308.037 166.796 C 307.213 167.546,306.926 169.434,307.637 169.434 C 308.116 169.434,311.900 170.974,312.180 171.283 C 312.265 171.377,312.894 171.648,313.576 171.884 C 314.259 172.121,314.989 172.378,315.199 172.456 C 315.433 172.543,316.093 171.533,316.902 169.852 C 317.628 168.342,318.329 167.060,318.460 167.003 C 318.590 166.946,318.697 166.704,318.697 166.464 C 318.697 166.047,320.647 162.164,321.180 161.521 C 321.321 161.350,321.459 161.071,321.485 160.900 C 321.572 160.347,322.514 158.442,323.173 157.486 C 323.526 156.974,323.798 156.486,323.778 156.400 C 323.757 156.315,323.805 156.079,323.883 155.875 C 324.112 155.279,323.853 154.468,323.351 154.210 C 322.374 153.708,319.404 152.366,319.269 152.366 C 319.192 152.366,318.255 152.981,317.188 153.732 M286.424 154.365 C 286.424 154.523,289.176 155.785,289.489 155.770 C 289.771 155.756,288.755 155.194,287.507 154.672 C 286.911 154.423,286.424 154.285,286.424 154.365 M275.588 154.660 C 275.934 154.985,278.957 156.310,278.809 156.071 C 278.716 155.921,278.000 155.514,277.217 155.168 C 275.859 154.567,275.307 154.395,275.588 154.660 M291.534 156.695 C 291.645 156.874,291.902 157.023,292.105 157.026 C 293.540 157.044,292.886 159.684,290.921 161.804 C 290.495 162.263,290.147 162.841,290.147 163.088 C 290.147 163.335,289.998 163.538,289.816 163.538 C 288.306 163.538,290.320 165.882,292.337 166.472 C 292.754 166.594,294.106 167.171,295.341 167.754 C 296.577 168.336,297.697 168.813,297.832 168.813 C 297.966 168.813,298.909 169.221,299.927 169.720 C 301.210 170.350,301.892 170.533,302.151 170.318 C 302.631 169.919,304.184 166.623,304.833 164.624 C 305.795 161.661,307.816 158.242,308.878 157.780 C 310.292 157.165,309.538 157.243,307.215 157.952 C 304.920 158.653,299.066 158.815,296.855 158.240 C 294.190 157.546,293.683 157.388,292.524 156.885 C 291.869 156.601,291.423 156.515,291.534 156.695 M265.632 158.693 C 265.632 158.907,267.821 160.211,267.955 160.077 C 268.020 160.012,267.524 159.643,266.853 159.256 C 266.181 158.870,265.632 158.617,265.632 158.693 M268.735 160.420 C 268.991 160.594,269.469 160.737,269.796 160.740 C 270.590 160.746,270.342 160.569,269.201 160.314 C 268.521 160.161,268.396 160.190,268.735 160.420 M258.960 171.606 C 259.066 171.777,259.598 171.906,260.142 171.894 C 260.977 171.876,261.035 171.831,260.512 171.606 C 259.646 171.234,258.730 171.234,258.960 171.606 M261.753 172.277 C 262.095 172.465,262.799 172.984,263.319 173.431 C 263.845 173.884,263.747 173.728,263.098 173.080 C 262.457 172.440,261.753 171.920,261.533 171.926 C 261.313 171.931,261.412 172.089,261.753 172.277 M232.250 174.192 C 232.163 174.420,232.133 175.781,232.185 177.218 L 232.279 179.829 232.431 176.803 C 232.582 173.797,232.555 173.398,232.250 174.192 M254.461 174.691 C 254.461 175.213,254.514 175.640,254.580 175.640 C 254.843 175.640,254.980 174.062,254.730 173.908 C 254.582 173.816,254.461 174.169,254.461 174.691 M254.483 177.406 C 254.471 177.780,254.600 178.172,254.771 178.278 C 255.138 178.505,255.138 178.201,254.771 177.347 C 254.514 176.748,254.504 176.751,254.483 177.406 " stroke="none" fill="#545454" fill-rule="evenodd"></path><path id="path4" d="M77.580 97.750 C 77.580 98.774,77.684 99.612,77.812 99.612 C 77.940 99.612,78.045 98.774,78.045 97.750 C 78.045 96.726,77.940 95.888,77.812 95.888 C 77.684 95.888,77.580 96.726,77.580 97.750 M90.613 120.093 C 90.977 120.605,91.346 121.024,91.431 121.024 C 91.516 121.024,91.288 120.605,90.923 120.093 C 90.559 119.581,90.190 119.162,90.105 119.162 C 90.020 119.162,90.248 119.581,90.613 120.093 M88.823 124.722 C 89.381 125.220,89.888 125.576,89.950 125.514 C 90.094 125.370,88.368 123.840,88.048 123.827 C 87.917 123.821,88.266 124.224,88.823 124.722 M159.049 125.350 C 158.942 125.524,159.342 125.569,160.040 125.461 C 161.598 125.221,161.723 125.058,160.349 125.058 C 159.734 125.058,159.149 125.190,159.049 125.350 M130.334 129.727 C 129.994 129.957,130.119 129.986,130.799 129.834 C 131.940 129.579,132.188 129.401,131.394 129.407 C 131.067 129.410,130.590 129.554,130.334 129.727 M245.907 135.454 C 245.795 136.051,245.579 136.540,245.427 136.540 C 245.275 136.540,245.151 136.749,245.151 137.005 C 245.151 137.261,245.012 137.471,244.841 137.471 C 244.670 137.471,244.531 137.742,244.531 138.073 C 244.531 138.405,244.389 138.763,244.215 138.870 C 244.042 138.978,243.980 139.195,244.078 139.354 C 244.177 139.513,244.109 139.643,243.928 139.643 C 243.238 139.643,243.568 141.454,244.298 141.667 C 245.563 142.036,246.703 142.584,246.703 142.822 C 246.703 142.951,246.947 143.061,247.246 143.067 C 247.545 143.072,248.060 143.281,248.391 143.532 C 248.723 143.783,249.316 143.988,249.710 143.988 C 250.104 143.988,250.427 144.127,250.427 144.298 C 250.427 144.469,250.694 144.608,251.021 144.608 C 251.349 144.608,251.663 144.713,251.720 144.841 C 251.881 145.203,254.101 146.160,254.782 146.160 C 255.117 146.160,255.392 146.299,255.392 146.470 C 255.392 146.641,255.671 146.780,256.012 146.780 C 256.354 146.780,256.633 146.914,256.633 147.077 C 256.633 147.240,257.123 147.465,257.723 147.577 C 258.322 147.690,258.889 147.906,258.982 148.057 C 259.076 148.208,259.423 148.332,259.755 148.332 C 260.086 148.332,260.357 148.439,260.357 148.569 C 260.357 149.026,262.693 149.805,263.636 149.663 C 264.247 149.571,264.999 149.751,265.740 150.167 C 266.374 150.523,267.018 150.815,267.171 150.815 C 267.324 150.815,268.471 151.285,269.721 151.860 C 273.490 153.594,275.331 154.405,276.915 155.030 C 277.756 155.362,278.756 156.056,279.176 156.600 C 279.708 157.289,280.475 157.746,281.778 158.152 C 282.794 158.469,283.627 158.832,283.628 158.960 C 283.630 159.088,283.840 159.193,284.096 159.193 C 284.352 159.193,284.562 159.298,284.562 159.426 C 284.562 159.554,285.400 159.926,286.424 160.254 C 287.448 160.581,288.285 160.965,288.285 161.107 C 288.285 161.249,288.534 161.365,288.838 161.365 C 289.141 161.365,289.580 161.630,289.814 161.953 C 290.223 162.522,290.262 162.515,290.966 161.755 C 291.665 161.002,293.404 157.679,293.196 157.495 C 293.047 157.363,289.529 155.780,289.385 155.780 C 289.317 155.780,288.204 155.291,286.910 154.694 C 285.617 154.096,284.500 153.607,284.428 153.607 C 284.356 153.607,283.204 153.113,281.869 152.509 C 278.460 150.965,278.404 150.940,276.407 150.056 C 275.420 149.620,274.558 149.263,274.490 149.263 C 274.422 149.263,273.344 148.792,272.094 148.217 C 269.485 147.015,267.501 146.123,265.400 145.206 C 264.589 144.853,263.507 144.379,262.995 144.153 C 262.483 143.927,261.365 143.442,260.512 143.075 C 259.659 142.708,258.424 142.134,257.767 141.801 C 257.111 141.468,256.446 141.195,256.290 141.195 C 255.994 141.195,251.897 139.342,250.272 138.473 C 249.193 137.896,247.852 136.539,247.096 135.261 C 246.407 134.093,246.154 134.134,245.907 135.454 M204.189 144.401 C 204.189 144.486,204.748 144.998,205.431 145.539 C 206.113 146.080,206.672 146.452,206.672 146.367 C 206.672 146.282,206.113 145.770,205.431 145.229 C 204.748 144.688,204.189 144.316,204.189 144.401 M310.784 157.065 C 309.418 157.573,308.140 158.155,307.944 158.358 C 307.185 159.144,304.688 164.520,304.568 165.629 C 304.498 166.271,304.515 166.564,304.604 166.280 C 304.749 165.822,304.860 165.813,305.603 166.201 C 306.063 166.441,306.692 166.638,307.000 166.639 C 307.309 166.640,307.476 166.780,307.370 166.951 C 307.065 167.444,307.497 167.312,308.131 166.718 C 308.926 165.973,313.930 156.064,313.485 156.115 C 313.364 156.129,312.149 156.557,310.784 157.065 M264.469 159.037 C 264.255 159.279,264.081 159.693,264.081 159.956 C 264.081 160.219,263.972 160.434,263.839 160.434 C 263.706 160.434,263.326 161.133,262.995 161.986 C 262.663 162.839,262.284 163.538,262.150 163.538 C 262.017 163.538,261.908 163.817,261.908 164.158 C 261.908 164.500,261.800 164.779,261.666 164.779 C 261.533 164.779,261.154 165.477,260.822 166.330 C 260.491 167.184,260.111 167.882,259.978 167.882 C 259.845 167.882,259.736 168.150,259.736 168.477 C 259.736 168.804,259.600 169.118,259.433 169.175 C 258.178 169.603,258.799 171.177,260.384 171.583 C 261.466 171.860,262.447 172.400,263.303 173.189 L 264.592 174.377 265.162 173.069 C 265.476 172.350,265.822 171.691,265.931 171.606 C 266.122 171.457,266.605 170.447,267.528 168.270 C 267.764 167.715,268.031 167.261,268.122 167.261 C 268.214 167.261,268.559 166.563,268.891 165.710 C 269.222 164.856,269.602 164.158,269.735 164.158 C 269.868 164.158,269.977 163.891,269.977 163.563 C 269.977 163.236,270.113 162.922,270.280 162.865 C 271.072 162.595,271.010 160.745,270.209 160.745 C 269.291 160.745,267.363 159.981,266.205 159.158 C 265.232 158.466,264.986 158.449,264.469 159.037 M319.018 165.379 C 318.625 166.114,318.607 166.423,318.970 166.198 C 319.243 166.029,319.670 164.779,319.454 164.779 C 319.391 164.779,319.195 165.049,319.018 165.379 M309.558 170.330 C 309.720 170.481,310.202 170.697,310.628 170.808 L 311.404 171.011 310.628 170.544 C 309.764 170.023,309.084 169.887,309.558 170.330 M314.528 172.570 C 314.736 172.907,315.502 172.936,315.701 172.614 C 315.780 172.486,315.509 172.362,315.100 172.337 C 314.691 172.313,314.433 172.417,314.528 172.570 M243.600 173.772 L 232.583 173.933 232.494 176.804 L 232.405 179.674 243.898 179.674 C 250.220 179.674,255.392 179.566,255.392 179.433 C 255.392 179.300,255.171 178.876,254.901 178.491 C 254.538 177.973,254.437 177.228,254.513 175.629 C 254.570 174.439,254.616 173.499,254.616 173.539 C 254.616 173.578,249.659 173.684,243.600 173.772 " stroke="none" fill="#3c3c35" fill-rule="evenodd"></path></g></svg>